<svg width="271" height="96" viewBox="0 0 271 96" fill="none" xmlns="http://www.w3.org/2000/svg">
<path fill-rule="evenodd" clip-rule="evenodd" d="M104.411 4.70799C114.117 3.79174 126.875 2.58725 145.038 0.509766L145.379 3.49033C127.187 5.5712 114.404 6.77794 104.695 7.69459L103.876 7.77192C94.0546 8.69938 87.4729 9.33265 81.5163 10.3077C69.6456 12.251 60.2335 15.5531 32.7215 25.4012C20.8998 29.6329 12.9366 35.238 8.35647 41.2813C3.80276 47.2898 2.5544 53.7695 4.18098 59.9929C7.46293 72.5498 22.7195 84.7543 48.492 89.3539C87.9167 96.39 137.458 90.2477 175.661 84.3675C177.034 84.1562 181.122 83.0535 186.892 81.3405C192.605 79.6444 199.844 77.3879 207.427 74.9209C222.621 69.9778 239.097 64.2211 247.468 60.4412C255.749 56.7018 263.701 48.1969 266.472 39.7417C267.847 35.5457 267.903 31.5061 266.273 28.0842C264.652 24.682 261.238 21.6251 255.127 19.6302C243.566 15.8564 226.301 14.2994 208.843 13.9127C191.43 13.5269 173.988 14.3071 162.165 15.1363C132.167 17.2402 121.397 20.9055 101.495 27.6786C96.8254 29.2676 91.6535 31.0277 85.6127 32.9788L84.6906 30.124C90.6747 28.1912 95.8179 26.4406 100.478 24.8546C120.467 18.0505 131.558 14.2755 161.955 12.1437C173.839 11.3102 191.377 10.525 208.91 10.9134C226.399 11.3008 244.046 12.8573 256.058 16.7783C262.721 18.9536 266.915 22.4573 268.981 26.794C271.038 31.1109 270.859 35.9886 269.323 40.676C266.271 49.9877 257.695 59.1146 248.702 63.1753C240.16 67.0326 223.534 72.8357 208.356 77.7737C200.753 80.2472 193.488 82.5116 187.746 84.2165C182.06 85.9045 177.74 87.0828 176.117 87.3326C137.955 93.2065 87.9457 99.4425 47.9649 92.3072C21.7476 87.6283 5.00286 75.0012 1.27848 60.7515C-0.598103 53.5716 0.899115 46.1543 5.96554 39.4693C11.0055 32.8192 19.537 26.9343 31.7104 22.5767C59.1345 12.7601 68.8329 9.34408 81.0316 7.34714C87.1098 6.35215 93.8024 5.70985 103.594 4.78521L104.411 4.70799Z" fill="#FFCD7F"/>
</svg>
