<svg width="243" height="63" viewBox="0 0 243 63" fill="none" xmlns="http://www.w3.org/2000/svg">
<path fill-rule="evenodd" clip-rule="evenodd" d="M18.4462 17.6401C53.4822 0.732573 93.721 0.421037 136.454 0.638715L136.44 3.42868C93.5937 3.21043 54.0187 3.57155 19.6588 20.1528C11.7535 23.9677 7.01532 28.1824 4.84182 32.2356C2.7185 36.1952 2.97633 40.1087 5.32633 43.721C7.72875 47.4139 12.381 50.8677 19.1677 53.5127C25.9312 56.1487 34.6994 57.9346 45.1584 58.3746C67.7176 59.3238 90.4422 60.2534 112.86 58.9937C122.903 58.4293 146.162 57.0498 169.979 54.1456C181.889 52.6935 193.917 50.8625 204.491 48.5668C215.094 46.2649 224.124 43.5183 230.105 40.2766C231.857 39.3269 233.774 37.5455 235.393 35.6044C237.023 33.6498 238.191 31.7257 238.573 30.5981C239.735 27.1651 239.856 24.3653 239.234 22.0684C238.615 19.783 237.225 17.8552 235.11 16.2214C230.81 12.8982 223.666 10.9083 214.751 9.86338C198.991 8.01608 178.553 9.19778 160.892 10.2189C158.643 10.3489 156.439 10.4764 154.295 10.5946C128.677 12.0077 107.836 16.4744 85.0752 21.3524C80.501 22.3327 75.8493 23.3297 71.0658 24.3218L70.4992 21.5899C75.2491 20.6048 79.8789 19.6123 84.4408 18.6344C107.211 13.7532 128.288 9.23492 154.142 7.80885C156.275 7.69114 158.476 7.56371 160.727 7.43336C178.343 6.41335 199.052 5.21417 215.076 7.09235C224.08 8.14781 231.88 10.1993 236.816 14.0137C239.32 15.9486 241.122 18.3636 241.927 21.3395C242.729 24.3038 242.505 27.6837 241.215 31.4932C240.671 33.0997 239.25 35.3351 237.536 37.3911C235.81 39.4605 233.628 41.5407 231.434 42.7295C225.092 46.1667 215.743 48.9788 205.083 51.2933C194.393 53.6141 182.272 55.4574 170.317 56.9151C146.404 59.8309 123.071 61.2143 113.016 61.7793C90.4398 63.048 67.5796 62.1104 45.0411 61.1621C34.3462 60.7122 25.2637 58.8829 18.1546 56.1123C11.0687 53.3506 5.8265 49.6061 2.98767 45.2424C0.0964317 40.7982 -0.233797 35.797 2.38304 30.9171C4.94971 26.1307 10.2799 21.581 18.4462 17.6401Z" fill="white"/>
</svg>
