<svg width="410" height="304" viewBox="0 0 410 304" fill="none" xmlns="http://www.w3.org/2000/svg">
<path d="M1663 -200.5C1663 233.32 1311.32 585 877.5 585C443.68 585 92 233.32 92 -200.5C92 -634.32 443.68 -986 877.5 -986C1311.32 -986 1663 -634.32 1663 -200.5Z" fill="#EEB762"/>
<path d="M86 63C86 71.8366 78.8366 79 70 79C61.1634 79 54 71.8366 54 63C54 54.1634 61.1634 47 70 47C78.8366 47 86 54.1634 86 63Z" fill="#EEB762"/>
<path d="M247 252C247 258.075 242.075 263 236 263C229.925 263 225 258.075 225 252C225 245.925 229.925 241 236 241C242.075 241 247 245.925 247 252Z" fill="#FFE3B6"/>
<path d="M18 193C18 197.971 13.9706 202 9 202C4.02944 202 0 197.971 0 193C0 188.029 4.02944 184 9 184C13.9706 184 18 188.029 18 193Z" fill="#FFE7C1"/>
</svg>
