<svg width="104" height="104" viewBox="0 0 104 104" fill="none" xmlns="http://www.w3.org/2000/svg">
<circle cx="52" cy="52" r="52" fill="#C85764"/>
<path fill-rule="evenodd" clip-rule="evenodd" d="M70.3706 34.7331V60.72C70.3706 61.6728 69.5992 62.45 68.651 62.4524C64.6529 62.462 57.9545 63.3028 53.3336 68.1818V40.9861C53.3336 40.6631 53.4152 40.3596 53.5695 40.1085C57.3624 33.9459 64.6506 33.0096 68.6576 33H68.6618C69.1153 33 69.5426 33.1786 69.865 33.5031C70.191 33.8311 70.3706 34.268 70.3706 34.7331ZM35.3385 33.0002H35.3426C39.3497 33.0096 46.638 33.9459 50.4306 40.1085C50.585 40.3596 50.6667 40.6631 50.6667 40.9861V68.182C46.0458 63.3029 39.3474 62.4622 35.3494 62.4526C34.401 62.4501 33.6296 61.6729 33.6296 60.72V34.7332C33.6296 34.2682 33.8092 33.8313 34.1351 33.5032C34.4576 33.1787 34.8845 33.0002 35.3385 33.0002ZM74.2827 38.9931H73.0372V60.72C73.0372 63.1531 71.0725 65.1371 68.6573 65.1431C65.2661 65.1513 59.6744 65.8203 55.7144 69.602C62.5633 67.91 69.7834 69.0099 73.8982 69.956C74.412 70.074 74.9429 69.9521 75.3545 69.621C75.7647 69.2908 76 68.7972 76 68.2674V40.7258C76.0002 39.7704 75.2296 38.9931 74.2827 38.9931ZM30.9628 38.9931V60.72C30.9628 63.1531 32.9277 65.1371 35.3427 65.143C38.7339 65.1511 44.3256 65.82 48.2855 69.6015C41.4368 67.9095 34.2166 69.0092 30.1018 69.9555C29.5872 70.0739 29.0568 69.9514 28.6455 69.6206C28.2353 69.2903 28 68.7969 28 68.267V40.7258C28 39.7704 28.7706 38.9931 29.7173 38.9931H30.9628Z" fill="#F8E71C"/>
</svg>
