<svg width="178" height="30" viewBox="0 0 178 30" fill="none" xmlns="http://www.w3.org/2000/svg">
<path d="M17.64 18.64C17.64 20.0533 17.4533 21.4267 17.08 22.76C16.7333 24.0933 16.1867 25.28 15.44 26.32C14.6933 27.3333 13.7333 28.1067 12.56 28.64C11.7867 28.9867 10.88 29.1467 9.84 29.12C8.8 29.12 7.81333 28.9733 6.88 28.68C5.97333 28.36 5.28 27.9333 4.8 27.4V29H2.98023e-08V0.999998H4.8V9.68C5.30667 9.30667 5.97333 9.05333 6.8 8.92C7.62667 8.78667 8.33333 8.72 8.92 8.72C10.8133 8.72 12.4 9.17333 13.68 10.08C14.9867 10.96 15.9733 12.1467 16.64 13.64C17.3067 15.1333 17.64 16.8 17.64 18.64ZM12.8 18.64C12.8 17.1733 12.4133 16.0267 11.64 15.2C10.8933 14.3467 9.90667 13.8267 8.68 13.64C7.48 13.4533 6.18667 13.64 4.8 14.2V23.4C6.21333 24.2533 7.52 24.6133 8.72 24.48C9.94667 24.32 10.9333 23.7467 11.68 22.76C12.4267 21.7467 12.8 20.3733 12.8 18.64ZM28.7488 29.52C26.8288 29.52 25.1354 29.1067 23.6688 28.28C22.2288 27.4267 21.0954 26.2533 20.2688 24.76C19.4688 23.24 19.0688 21.48 19.0688 19.48C19.0688 15.96 19.9488 13.3067 21.7088 11.52C23.4954 9.70667 25.8421 8.8 28.7488 8.8C30.6421 8.8 32.3088 9.2 33.7488 10C35.2154 10.8 36.3621 12 37.1888 13.6C38.0154 15.1733 38.4288 17.1333 38.4288 19.48C38.4288 21.48 38.0154 23.24 37.1888 24.76C36.3621 26.2533 35.2154 27.4267 33.7488 28.28C32.3088 29.1067 30.6421 29.52 28.7488 29.52ZM28.7488 24.92C29.8421 24.92 30.7621 24.6667 31.5088 24.16C32.2821 23.6267 32.8554 22.9467 33.2288 22.12C33.6288 21.2933 33.8288 20.4133 33.8288 19.48C33.8288 17.8 33.3888 16.3733 32.5088 15.2C31.6554 14 30.4021 13.4 28.7488 13.4C27.1488 13.4 25.8954 13.9733 24.9888 15.12C24.1088 16.2667 23.6688 17.72 23.6688 19.48C23.6688 20.44 23.8688 21.3333 24.2688 22.16C24.6688 22.9867 25.2421 23.6533 25.9888 24.16C26.7621 24.6667 27.6821 24.92 28.7488 24.92ZM49.5456 29.52C47.6256 29.52 45.9323 29.1067 44.4656 28.28C43.0256 27.4267 41.8923 26.2533 41.0656 24.76C40.2656 23.24 39.8656 21.48 39.8656 19.48C39.8656 15.96 40.7456 13.3067 42.5056 11.52C44.2923 9.70667 46.639 8.8 49.5456 8.8C51.439 8.8 53.1056 9.2 54.5456 10C56.0123 10.8 57.159 12 57.9856 13.6C58.8123 15.1733 59.2256 17.1333 59.2256 19.48C59.2256 21.48 58.8123 23.24 57.9856 24.76C57.159 26.2533 56.0123 27.4267 54.5456 28.28C53.1056 29.1067 51.439 29.52 49.5456 29.52ZM49.5456 24.92C50.639 24.92 51.559 24.6667 52.3056 24.16C53.079 23.6267 53.6523 22.9467 54.0256 22.12C54.4256 21.2933 54.6256 20.4133 54.6256 19.48C54.6256 17.8 54.1856 16.3733 53.3056 15.2C52.4523 14 51.199 13.4 49.5456 13.4C47.9456 13.4 46.6923 13.9733 45.7856 15.12C44.9056 16.2667 44.4656 17.72 44.4656 19.48C44.4656 20.44 44.6656 21.3333 45.0656 22.16C45.4656 22.9867 46.039 23.6533 46.7856 24.16C47.559 24.6667 48.479 24.92 49.5456 24.92ZM61.8438 29V0.999998H66.6438V14.36L71.5238 8.92H77.8038L70.3238 17.36L78.6038 29H72.9638L66.6438 20.64V29H61.8438ZM78.4125 26.28L81.2125 23.28C82.6258 24.5067 84.0792 25.12 85.5725 25.12C85.9992 25.12 86.3858 25.08 86.7325 25C87.1058 24.8933 87.4125 24.7333 87.6525 24.52C87.9725 24.2267 88.1592 23.88 88.2125 23.48C88.2658 23.0533 88.2658 22.7067 88.2125 22.44C88.1058 21.96 87.7725 21.5867 87.2125 21.32C86.6792 21.0267 86.0125 20.7733 85.2125 20.56C84.4392 20.32 83.6392 20.0267 82.8125 19.68C81.9858 19.3333 81.2525 18.8667 80.6125 18.28C79.5725 17.2933 78.9725 16.2533 78.8125 15.16C78.6792 14.04 78.8925 13 79.4525 12.04C80.0392 11.08 80.8925 10.3067 82.0125 9.72C83.1325 9.10667 84.4392 8.8 85.9325 8.8C87.3458 8.8 88.6125 9.05333 89.7325 9.56C90.8525 10.04 91.7458 10.6667 92.4125 11.44L89.3725 14.16C88.9458 13.76 88.4125 13.4667 87.7725 13.28C87.1592 13.0667 86.5592 12.96 85.9725 12.96C85.3592 12.96 84.8258 13.0933 84.3725 13.36C83.9192 13.6 83.6925 14.0267 83.6925 14.64C83.6925 15.12 83.8792 15.5067 84.2525 15.8C84.6258 16.0933 85.1058 16.3467 85.6925 16.56C86.3058 16.7733 86.9592 17 87.6525 17.24C88.3725 17.4533 89.0525 17.7333 89.6925 18.08C90.5192 18.5067 91.2125 19.12 91.7725 19.92C92.3325 20.6933 92.6125 21.7067 92.6125 22.96C92.6125 24.32 92.2792 25.4667 91.6125 26.4C90.9725 27.3333 90.1192 28.0533 89.0525 28.56C87.9858 29.04 86.8125 29.28 85.5325 29.28C84.2792 29.28 83.0258 29.04 81.7725 28.56C80.5458 28.0533 79.4258 27.2933 78.4125 26.28ZM117.75 29V0.999998H122.55V14.36L127.43 8.92H133.71L126.23 17.36L134.51 29H128.87L122.55 20.64V29H117.75ZM138.029 6.64C137.203 6.64 136.509 6.36 135.949 5.8C135.389 5.24 135.109 4.54667 135.109 3.72C135.109 2.92 135.389 2.24 135.949 1.68C136.509 1.12 137.203 0.839998 138.029 0.839998C138.829 0.839998 139.509 1.12 140.069 1.68C140.629 2.24 140.909 2.92 140.909 3.72C140.909 4.54667 140.629 5.24 140.069 5.8C139.509 6.36 138.829 6.64 138.029 6.64ZM140.229 29H135.829V9H140.229V29ZM147.813 28.64C146.639 28.1067 145.679 27.3333 144.933 26.32C144.186 25.28 143.626 24.0933 143.253 22.76C142.906 21.4267 142.733 20.0533 142.733 18.64C142.733 16.8 143.066 15.1333 143.733 13.64C144.399 12.1467 145.373 10.96 146.653 10.08C147.959 9.17333 149.559 8.72 151.453 8.72C152.066 8.72 152.773 8.78667 153.573 8.92C154.399 9.05333 155.066 9.30667 155.573 9.68V0.999998H160.373V29H155.573V27.4C155.119 27.9333 154.426 28.36 153.493 28.68C152.559 28.9733 151.573 29.12 150.533 29.12C149.519 29.1467 148.613 28.9867 147.813 28.64ZM155.573 23.4V14.2C154.186 13.64 152.879 13.4533 151.653 13.64C150.453 13.8267 149.466 14.3467 148.693 15.2C147.946 16.0267 147.573 17.1733 147.573 18.64C147.573 20.3733 147.946 21.7467 148.693 22.76C149.439 23.7467 150.413 24.32 151.613 24.48C152.839 24.6133 154.159 24.2533 155.573 23.4ZM162.983 26.28L165.783 23.28C167.196 24.5067 168.649 25.12 170.143 25.12C170.569 25.12 170.956 25.08 171.303 25C171.676 24.8933 171.983 24.7333 172.223 24.52C172.543 24.2267 172.729 23.88 172.783 23.48C172.836 23.0533 172.836 22.7067 172.783 22.44C172.676 21.96 172.343 21.5867 171.783 21.32C171.249 21.0267 170.583 20.7733 169.783 20.56C169.009 20.32 168.209 20.0267 167.383 19.68C166.556 19.3333 165.823 18.8667 165.183 18.28C164.143 17.2933 163.543 16.2533 163.383 15.16C163.249 14.04 163.463 13 164.023 12.04C164.609 11.08 165.463 10.3067 166.583 9.72C167.703 9.10667 169.009 8.8 170.503 8.8C171.916 8.8 173.183 9.05333 174.303 9.56C175.423 10.04 176.316 10.6667 176.983 11.44L173.943 14.16C173.516 13.76 172.983 13.4667 172.343 13.28C171.729 13.0667 171.129 12.96 170.543 12.96C169.929 12.96 169.396 13.0933 168.943 13.36C168.489 13.6 168.263 14.0267 168.263 14.64C168.263 15.12 168.449 15.5067 168.823 15.8C169.196 16.0933 169.676 16.3467 170.263 16.56C170.876 16.7733 171.529 17 172.223 17.24C172.943 17.4533 173.623 17.7333 174.263 18.08C175.089 18.5067 175.783 19.12 176.343 19.92C176.903 20.6933 177.183 21.7067 177.183 22.96C177.183 24.32 176.849 25.4667 176.183 26.4C175.543 27.3333 174.689 28.0533 173.623 28.56C172.556 29.04 171.383 29.28 170.103 29.28C168.849 29.28 167.596 29.04 166.343 28.56C165.116 28.0533 163.996 27.2933 162.983 26.28Z" fill="#333333"/>
<path d="M115.155 21.92H111.275V29H106.475V21.92H94.7953V17.84L104.995 0.999998H111.275V17.24H115.155V21.92ZM106.475 17.24V7L100.235 17.24H106.475Z" fill="#EB5120"/>
</svg>
